<svg width="82" height="39" viewBox="0 0 82 39" fill="none" xmlns="http://www.w3.org/2000/svg">
<path d="M0.6 2.6H13.8C15.3333 2.6 16.8667 2.71667 18.4 2.95C19.9667 3.15 21.3667 3.58333 22.6 4.25C23.8333 4.88333 24.8333 5.78333 25.6 6.95C26.3667 8.11666 26.75 9.66667 26.75 11.6C26.75 13.6 26.1833 15.2667 25.05 16.6C23.95 17.9 22.4833 18.8333 20.65 19.4V19.5C21.8167 19.6667 22.8667 20 23.8 20.5C24.7667 20.9667 25.5833 21.5833 26.25 22.35C26.95 23.0833 27.4833 23.95 27.85 24.95C28.2167 25.95 28.4 27.0167 28.4 28.15C28.4 30.0167 28 31.5833 27.2 32.85C26.4 34.0833 25.3667 35.0833 24.1 35.85C22.8333 36.6167 21.4 37.1667 19.8 37.5C18.2333 37.8333 16.6667 38 15.1 38H0.6V2.6ZM8.4 16.75H14.05C14.65 16.75 15.2333 16.6833 15.8 16.55C16.4 16.4167 16.9333 16.2 17.4 15.9C17.8667 15.6 18.2333 15.2 18.5 14.7C18.8 14.2 18.95 13.6 18.95 12.9C18.95 12.1667 18.7833 11.5667 18.45 11.1C18.15 10.6 17.75 10.2167 17.25 9.95C16.75 9.68333 16.1833 9.5 15.55 9.4C14.9167 9.26667 14.3 9.2 13.7 9.2H8.4V16.75ZM8.4 31.4H15.4C16 31.4 16.6 31.3333 17.2 31.2C17.8333 31.0667 18.4 30.8333 18.9 30.5C19.4 30.1667 19.8 29.7333 20.1 29.2C20.4333 28.6667 20.6 28.0167 20.6 27.25C20.6 26.4167 20.3833 25.75 19.95 25.25C19.55 24.7167 19.0333 24.3167 18.4 24.05C17.7667 23.7833 17.0833 23.6 16.35 23.5C15.6167 23.4 14.9333 23.35 14.3 23.35H8.4V31.4ZM32.1719 0.199998H39.6719V38H32.1719V0.199998ZM60.3102 34.95H60.2102C59.3768 36.25 58.2602 37.1833 56.8602 37.75C55.4935 38.3167 54.0435 38.6 52.5102 38.6C51.3768 38.6 50.2768 38.4333 49.2102 38.1C48.1768 37.8 47.2602 37.3333 46.4602 36.7C45.6602 36.0667 45.0268 35.2833 44.5602 34.35C44.0935 33.4167 43.8602 32.3333 43.8602 31.1C43.8602 29.7 44.1102 28.5167 44.6102 27.55C45.1435 26.5833 45.8435 25.7833 46.7102 25.15C47.6102 24.5167 48.6268 24.0333 49.7602 23.7C50.8935 23.3333 52.0602 23.0667 53.2602 22.9C54.4935 22.7333 55.7102 22.6333 56.9102 22.6C58.1435 22.5667 59.2768 22.55 60.3102 22.55C60.3102 21.2167 59.8268 20.1667 58.8602 19.4C57.9268 18.6 56.8102 18.2 55.5102 18.2C54.2768 18.2 53.1435 18.4667 52.1102 19C51.1102 19.5 50.2102 20.2 49.4102 21.1L45.4102 17C46.8102 15.7 48.4435 14.7333 50.3102 14.1C52.1768 13.4333 54.1102 13.1 56.1102 13.1C58.3102 13.1 60.1102 13.3833 61.5102 13.95C62.9435 14.4833 64.0768 15.2833 64.9102 16.35C65.7768 17.4167 66.3768 18.7333 66.7102 20.3C67.0435 21.8333 67.2102 23.6167 67.2102 25.65V38H60.3102V34.95ZM58.4602 27.35C57.8935 27.35 57.1768 27.3833 56.3102 27.45C55.4768 27.4833 54.6602 27.6167 53.8602 27.85C53.0935 28.0833 52.4268 28.4333 51.8602 28.9C51.3268 29.3667 51.0602 30.0167 51.0602 30.85C51.0602 31.75 51.4435 32.4167 52.2102 32.85C52.9768 33.2833 53.7768 33.5 54.6102 33.5C55.3435 33.5 56.0435 33.4 56.7102 33.2C57.4102 33 58.0268 32.7167 58.5602 32.35C59.0935 31.9833 59.5102 31.5167 59.8102 30.95C60.1435 30.3833 60.3102 29.7167 60.3102 28.95V27.35H58.4602ZM72.0656 33.7C72.0656 33.0667 72.1823 32.4667 72.4156 31.9C72.649 31.3333 72.9656 30.85 73.3656 30.45C73.799 30.0167 74.299 29.6833 74.8656 29.45C75.4323 29.2167 76.0323 29.1 76.6656 29.1C77.299 29.1 77.899 29.2167 78.4656 29.45C79.0323 29.6833 79.5156 30.0167 79.9156 30.45C80.349 30.85 80.6823 31.3333 80.9156 31.9C81.149 32.4667 81.2656 33.0667 81.2656 33.7C81.2656 34.3333 81.149 34.9333 80.9156 35.5C80.6823 36.0667 80.349 36.5667 79.9156 37C79.5156 37.4 79.0323 37.7167 78.4656 37.95C77.899 38.1833 77.299 38.3 76.6656 38.3C76.0323 38.3 75.4323 38.1833 74.8656 37.95C74.299 37.7167 73.799 37.4 73.3656 37C72.9656 36.5667 72.649 36.0667 72.4156 35.5C72.1823 34.9333 72.0656 34.3333 72.0656 33.7Z" fill="black"/>
</svg>
