<svg width="28" height="28" viewBox="0 0 28 28" fill="none" xmlns="http://www.w3.org/2000/svg">
<path d="M26.88 0H1.12C0.5005 0 0 0.5005 0 1.12V26.88C0 27.4995 0.5005 28 1.12 28H26.88C27.4995 28 28 27.4995 28 26.88V1.12C28 0.5005 27.4995 0 26.88 0ZM8.3055 23.8595H4.151V10.4965H8.3055V23.8595ZM6.23 8.6695C5.75374 8.6695 5.28818 8.52827 4.89219 8.26368C4.49619 7.99908 4.18755 7.62301 4.0053 7.183C3.82304 6.743 3.77536 6.25883 3.86827 5.79172C3.96118 5.32462 4.19052 4.89555 4.52729 4.55879C4.86405 4.22202 5.29312 3.99268 5.76022 3.89977C6.22733 3.80686 6.7115 3.85454 7.1515 4.0368C7.59151 4.21905 7.96758 4.52769 8.23218 4.92369C8.49677 5.31968 8.638 5.78524 8.638 6.2615C8.6345 7.5915 7.5565 8.6695 6.23 8.6695ZM23.8595 23.8595H19.7085V17.36C19.7085 15.8095 19.6805 13.818 17.549 13.818C15.3895 13.818 15.057 15.505 15.057 17.248V23.8595H10.9095V10.4965H14.8925V12.3235H14.9485C15.5015 11.2735 16.856 10.164 18.879 10.164C23.086 10.164 23.8595 12.9325 23.8595 16.5305V23.8595Z" fill="#111111"/>
</svg>
